name D:\school\WTK\thesis\model\3dpredictsim\Results\batch_windlass\Pog_s1_tmt_bCst_d05_k1000_WL20_ig24.mot
datacolumns 128
datarows 4
range 0.00000000 0.03134117
endheader
time	pelvis_tilt	pelvis_list	pelvis_rotation	pelvis_tx	pelvis_ty	pelvis_tz	hip_flexion_l	hip_adduction_l	hip_rotation_l	hip_flexion_r	hip_adduction_r	hip_rotation_r	knee_angle_l	knee_angle_r	ankle_angle_l	ankle_angle_r	subtalar_angle_l	subtalar_angle_r	tmt_angle_l	tmt_angle_r	mtp_angle_l	mtp_angle_r	lumbar_extension	lumbar_bending	lumbar_rotation	arm_flex_l	arm_add_l	arm_rot_l	arm_flex_r	arm_add_r	arm_rot_r	elbow_flex_l	elbow_flex_r	pro_sup_l	pro_sup_r	glut_med1_l/activation	glut_med2_l/activation	glut_med3_l/activation	glut_min1_l/activation	glut_min2_l/activation	glut_min3_l/activation	semimem_l/activation	semiten_l/activation	bifemlh_l/activation	bifemsh_l/activation	sar_l/activation	add_long_l/activation	add_brev_l/activation	add_mag1_l/activation	add_mag2_l/activation	add_mag3_l/activation	tfl_l/activation	pect_l/activation	grac_l/activation	glut_max1_l/activation	glut_max2_l/activation	glut_max3_l/activation	iliacus_l/activation	psoas_l/activation	quad_fem_l/activation	gem_l/activation	peri_l/activation	rect_fem_l/activation	vas_med_l/activation	vas_int_l/activation	vas_lat_l/activation	med_gas_l/activation	lat_gas_l/activation	soleus_l/activation	tib_post_l/activation	flex_dig_l/activation	flex_hal_l/activation	tib_ant_l/activation	per_brev_l/activation	per_long_l/activation	per_tert_l/activation	ext_dig_l/activation	ext_hal_l/activation	ercspn_l/activation	intobl_l/activation	extobl_l/activation	glut_med1_r/activation	glut_med2_r/activation	glut_med3_r/activation	glut_min1_r/activation	glut_min2_r/activation	glut_min3_r/activation	semimem_r/activation	semiten_r/activation	bifemlh_r/activation	bifemsh_r/activation	sar_r/activation	add_long_r/activation	add_brev_r/activation	add_mag1_r/activation	add_mag2_r/activation	add_mag3_r/activation	tfl_r/activation	pect_r/activation	grac_r/activation	glut_max1_r/activation	glut_max2_r/activation	glut_max3_r/activation	iliacus_r/activation	psoas_r/activation	quad_fem_r/activation	gem_r/activation	peri_r/activation	rect_fem_r/activation	vas_med_r/activation	vas_int_r/activation	vas_lat_r/activation	med_gas_r/activation	lat_gas_r/activation	soleus_r/activation	tib_post_r/activation	flex_dig_r/activation	flex_hal_r/activation	tib_ant_r/activation	per_brev_r/activation	per_long_r/activation	per_tert_r/activation	ext_dig_r/activation	ext_hal_r/activation	ercspn_r/activation	intobl_r/activation	extobl_r/activation	
          0.00000000	         -2.92091897	         -1.29021889	          5.44199394	          0.00000000	          0.85916063	         -0.00135946	        -17.73708966	         -1.18018363	          8.11476089	         31.20375851	          2.23496295	         -2.35282256	         -9.58588510	        -18.92711641	         -0.66648509	         -1.01107452	         12.24631104	         -0.23556375	         -5.13181537	         -0.14199665	         26.99542005	          0.73493559	         -1.04364353	         -0.36473458	         -1.68056987	          4.66521831	        -13.47382869	         15.63418716	         -8.09790368	        -13.61996128	          8.43306897	         32.08224542	         17.57376821	         86.51662706	         86.51662706	          0.29049108	          0.08456774	          0.05000015	          0.30507623	          0.19016106	          0.08702258	          0.05000105	          0.05000020	          0.05000013	          0.06891411	          0.08282156	          0.12690247	          0.05633314	          0.05000087	          0.05000218	          0.05000085	          0.26708294	          0.05593008	          0.05000044	          0.05000134	          0.05000112	          0.05000102	          0.27214819	          0.49941800	          0.05000010	          0.05000024	          0.05000004	          0.16693531	          0.10428976	          0.08063537	          0.07423565	          0.27340967	          0.34722790	          0.23039586	          0.19364405	          0.18971186	          0.25835202	          0.05000000	          0.09413276	          0.15701636	          0.05000009	          0.05000001	          0.05000006	          0.05000000	          0.05000025	          0.05000007	          0.05000059	          0.05000028	          0.05000174	          0.05000032	          0.05000033	          0.05000074	          0.05870590	          0.05870589	          0.07932890	          0.05000152	          0.05000073	          0.11156411	          0.14768901	          0.14741297	          0.15939308	          0.11112379	          0.05000046	          0.05868949	          0.05870681	          0.05000062	          0.06578342	          0.12227835	          0.05870607	          0.05765538	          0.26225895	          0.05591182	          0.05000054	          0.05000006	          0.13290970	          0.13700845	          0.11459526	          0.05870593	          0.05870595	          0.05870587	          0.05000001	          0.05000092	          0.05000241	          0.42069518	          0.24570879	          0.14910786	          0.29672136	          0.57686519	          0.05000005	          0.05000009	          0.10937894	          0.11162712	
          0.01044706	         -2.90877727	         -1.40129229	          5.70235282	          0.01593202	          0.85812466	         -0.00117398	        -17.43778901	         -1.47013974	          7.88758699	         30.59281321	          2.64931122	         -2.10053633	        -11.68560599	        -18.91482946	         -1.56265913	         -1.40514514	         13.20702632	         -0.90198962	         -5.54052380	         -0.16563557	         27.81133561	          0.86869009	         -0.84173301	         -0.10934853	         -1.74070636	          4.41052478	        -13.50436194	         15.94684133	         -9.04462305	        -13.62260043	          8.20612020	         32.99671302	         17.46968644	         86.51662706	         86.51662706	          0.24741229	          0.07202665	          0.05000012	          0.25983457	          0.16196086	          0.07411746	          0.05000573	          0.05000031	          0.05000057	          0.05869443	          0.07053955	          0.20829824	          0.17057786	          0.10550328	          0.05000130	          0.13028926	          0.22747564	          0.09720358	          0.05000121	          0.05000071	          0.05000042	          0.05000036	          0.23178957	          0.43822033	          0.05000012	          0.05000195	          0.05870588	          0.14217942	          0.08882421	          0.15379750	          0.15379729	          0.23286396	          0.29573521	          0.19622895	          0.16492733	          0.16157835	          0.22003936	          0.06471045	          0.08017322	          0.13373140	          0.05000007	          0.08614809	          0.05000027	          0.05000002	          0.06892777	          0.06033100	          0.05000004	          0.05000015	          0.07560186	          0.05000007	          0.05000013	          0.05000016	          0.05000004	          0.05000010	          0.06756472	          0.05000012	          0.05103827	          0.09501972	          0.12578737	          0.33822341	          0.24410197	          0.09852859	          0.05000022	          0.05000093	          0.05000101	          0.05870561	          0.05870603	          0.12724831	          0.05000035	          0.06892716	          0.49911930	          0.09428313	          0.06062527	          0.06892761	          0.24791493	          0.24062864	          0.20679686	          0.05000005	          0.05000007	          0.05000000	          0.05003119	          0.05870581	          0.05000024	          0.55666157	          0.20927104	          0.12699569	          0.43354592	          0.59935242	          0.08145129	          0.05000000	          0.09315842	          0.09507320	
          0.02089411	         -2.89273207	         -1.52161762	          5.93911709	          0.03208707	          0.85693667	         -0.00100945	        -17.06600809	         -1.75425996	          7.64441533	         29.80458359	          3.02284691	         -1.76722084	        -13.92483068	        -19.30965175	         -2.51873686	         -1.54259944	         14.09362784	         -1.62008729	         -5.87051199	         -0.30675573	         28.19149388	          0.97444551	         -0.62335174	          0.16276682	         -1.79016173	          4.08877798	        -13.54234876	         16.20002389	         -9.98887654	        -13.63451729	          8.04542470	         33.91598285	         17.35353485	         86.51662706	         86.51662706	          0.32196406	          0.06134536	          0.05000005	          0.22130214	          0.13794267	          0.06312612	          0.05000098	          0.05000024	          0.05000021	          0.05000004	          0.06007889	          0.18910427	          0.31503077	          0.08985787	          0.05870655	          0.11096835	          0.25620786	          0.08278949	          0.05000084	          0.05000618	          0.05002538	          0.05870476	          0.19741602	          0.41182537	          0.05000037	          0.05000032	          0.05000004	          0.12109472	          0.08215193	          0.13098998	          0.13098976	          0.19833104	          0.25187870	          0.16712887	          0.14046919	          0.13761690	          0.18740832	          0.16977428	          0.15373575	          0.15885893	          0.10981633	          0.21034679	          0.14990662	          0.07019684	          0.05870602	          0.05870594	          0.30780937	          0.30758186	          0.37674186	          0.06221249	          0.05000036	          0.35162202	          0.08712415	          0.05000046	          0.09642669	          0.05000004	          0.05000019	          0.08092903	          0.22887740	          0.28806615	          0.21142492	          0.14955959	          0.05000017	          0.06892783	          0.11314447	          0.05000007	          0.05000018	          0.13710404	          0.05870365	          0.05870555	          0.42510164	          0.08030134	          0.21226289	          0.05870589	          0.23200953	          0.23889855	          0.20302224	          0.05870584	          0.05870579	          0.05870587	          0.05000004	          0.05000032	          0.05000409	          0.52613484	          0.17823689	          0.10816268	          0.36925273	          0.58374075	          0.06937235	          0.05000001	          0.08423074	          0.08097418	
          0.03134117	         -2.87541191	         -1.64708357	          6.14661761	          0.04823616	          0.85567435	         -0.00084408	        -16.58077516	         -2.02337928	          7.39628644	         28.86967923	          3.37531651	         -1.42806160	        -16.36158222	        -19.64805107	         -3.45308285	         -1.46574823	         14.88729041	         -2.37585786	         -5.98913909	         -0.42529162	         27.76967356	          1.13562434	         -0.40938257	          0.44368501	         -1.82877628	          3.73907542	        -13.58585422	         16.40628321	        -10.87616276	        -13.65186608	          7.97541230	         34.81235982	         17.18966286	         86.51662706	         86.51662706	          0.27421793	          0.05224807	          0.05000001	          0.18848406	          0.11748630	          0.05376478	          0.05000481	          0.05000018	          0.05000018	          0.05000015	          0.05518261	          0.22113432	          0.26831289	          0.07653237	          0.05000087	          0.09451241	          0.26959962	          0.07051253	          0.05000020	          0.05000037	          0.05000022	          0.05000014	          0.16813994	          0.37250488	          0.05000002	          0.05000017	          0.05000012	          0.10313687	          0.06996915	          0.11156468	          0.11156449	          0.16891923	          0.21452596	          0.14234424	          0.11963814	          0.11720889	          0.15961642	          0.21052918	          0.13093765	          0.13530079	          0.24151466	          0.24236708	          0.12767623	          0.11081676	          0.05000013	          0.05000007	          0.39759559	          0.45341214	          0.50476359	          0.25394068	          0.33478523	          0.33021790	          0.07420400	          0.10663139	          0.08212713	          0.06892774	          0.05000036	          0.06892755	          0.19493569	          0.24534704	          0.19713997	          0.16327917	          0.05000014	          0.05870623	          0.09636606	          0.27305006	          0.20156776	          0.16545028	          0.05000003	          0.05000003	          0.36206057	          0.06839319	          0.18078608	          0.05000002	          0.29757278	          0.31212273	          0.26345517	          0.05000001	          0.05000002	          0.05000000	          0.10655460	          0.05000039	          0.05000010	          0.62270111	          0.15180499	          0.09212254	          0.37910155	          0.56576246	          0.34373221	          0.06626709	          0.07173962	          0.06896599	
